<svg version="1.0" xmlns="http://www.w3.org/2000/svg"

 width="120.000000pt" height="120.000000pt" viewBox="0 0 120.000000 120.000000"

 preserveAspectRatio="xMidYMid meet">



<g transform="translate(0.000000,120.000000) scale(0.100000,-0.100000)"

fill="#000000" stroke="none">

<path d="M370 740 c0 -83 -1 -90 -20 -90 -18 0 -20 7 -22 68 l-2 67 -5 -75 -6

-75 -47 -10 c-83 -18 -71 -33 15 -19 24 4 37 12 37 22 0 8 2 13 5 10 4 -3 3

-17 0 -30 -7 -28 -56 -43 -176 -54 -38 -4 -69 -11 -69 -16 0 -20 230 18 247

41 7 10 12 11 13 4 0 -6 -4 -15 -10 -18 -13 -8 -13 -95 -1 -95 6 0 11 23 13

52 3 53 28 83 28 34 0 -14 5 -26 10 -26 15 0 12 60 -2 61 -7 1 -17 2 -23 4 -5

1 -14 3 -19 3 -10 2 13 32 25 32 5 0 9 -6 9 -14 0 -20 33 -29 61 -17 69 29

298 53 283 30 -3 -5 -1 -9 5 -9 5 0 13 5 16 10 3 6 22 10 41 10 33 0 34 -1 31

-35 -3 -19 0 -35 4 -35 5 0 9 13 9 30 0 28 2 29 37 26 30 -3 39 -9 44 -27 l7

-24 1 23 c1 14 6 22 14 19 6 -2 12 -13 11 -25 0 -12 3 -19 8 -16 4 3 8 12 8

20 0 8 5 14 10 14 6 0 10 -4 10 -10 0 -16 47 -11 54 5 3 9 0 18 -7 20 -41 14

-144 36 -218 46 -101 14 -207 2 -329 -37 -72 -22 -94 -24 -74 -4 10 9 177 60

200 60 8 0 14 7 14 15 0 21 -24 19 -124 -10 -47 -14 -88 -25 -91 -25 -3 0 -5

36 -5 80 0 47 -4 80 -10 80 -6 0 -10 -37 -10 -90z m230 -34 c0 -2 -9 -6 -20

-9 -11 -3 -18 -1 -14 4 5 9 34 13 34 5z"/>

<path d="M620 715 c0 -8 6 -15 13 -15 8 0 14 7 14 15 0 8 -6 15 -14 15 -7 0

-13 -7 -13 -15z"/>

<path d="M668 723 c7 -3 16 -2 19 1 4 3 -2 6 -13 5 -11 0 -14 -3 -6 -6z"/>

<path d="M705 721 c3 -5 -7 -12 -22 -14 -16 -2 2 -5 38 -6 51 -1 68 3 73 14 3

8 1 15 -4 15 -6 0 -10 -4 -10 -10 0 -5 -7 -10 -16 -10 -8 0 -12 5 -9 10 3 6

-1 10 -10 10 -9 0 -13 -4 -10 -10 3 -5 1 -10 -4 -10 -6 0 -11 5 -11 10 0 6 -5

10 -11 10 -5 0 -8 -4 -4 -9z"/>

<path d="M810 705 c0 -8 2 -15 4 -15 2 0 6 7 10 15 3 8 1 15 -4 15 -6 0 -10

-7 -10 -15z"/>

<path d="M617 610 c3 -11 9 -17 15 -14 5 3 4 12 -3 20 -16 19 -18 18 -12 -6z"/>

<path d="M770 603 c0 -21 3 -24 9 -14 5 8 7 20 4 28 -8 21 -13 15 -13 -14z"/>

<path d="M593 602 c0 -12 5 -22 9 -22 11 0 10 12 -2 30 -7 12 -9 10 -7 -8z"/>

<path d="M531 598 c-1 -12 6 -18 19 -18 11 0 20 -4 20 -10 0 -5 5 -10 11 -10

8 0 8 5 -1 15 -7 8 -18 15 -25 15 -8 0 -16 6 -18 13 -3 7 -6 5 -6 -5z"/>

<path d="M650 590 c0 -14 6 -20 23 -19 16 1 18 2 5 6 -21 5 -23 19 -5 26 7 3

5 6 -5 6 -12 1 -18 -6 -18 -19z"/>

<path d="M506 575 c9 -14 20 -25 26 -25 11 0 -23 49 -35 50 -4 0 0 -11 9 -25z"/>

<path d="M866 573 c-6 -14 -5 -15 5 -6 7 7 10 15 7 18 -3 3 -9 -2 -12 -12z"/>

<path d="M420 570 c0 -17 17 -47 23 -40 2 3 -2 16 -10 30 -7 14 -13 18 -13 10z"/>

<path d="M955 563 c-6 -16 10 -33 30 -33 6 1 1 6 -10 12 -19 11 -19 11 0 18

16 6 16 7 3 13 -10 3 -19 -1 -23 -10z"/>

<path d="M465 540 c-3 -6 1 -7 9 -4 18 7 21 14 7 14 -6 0 -13 -4 -16 -10z"/>

<path d="M96 414 c-9 -8 -16 -20 -16 -25 0 -21 21 -49 38 -49 13 0 14 2 4 9

-8 5 -12 21 -10 37 3 25 7 29 31 27 15 -1 27 2 27 8 0 15 -57 10 -74 -7z"/>

<path d="M202 385 c-12 -25 -18 -45 -13 -45 5 0 14 12 19 28 l9 27 13 -27 c7

-16 19 -28 26 -28 8 0 6 13 -8 43 -11 23 -21 43 -22 44 -1 2 -12 -18 -24 -42z"/>

<path d="M290 385 c0 -45 20 -66 21 -22 l0 22 16 -22 c8 -13 22 -23 31 -23 13

0 13 2 -1 18 -12 14 -14 21 -6 29 19 19 2 43 -31 43 -29 0 -30 -2 -30 -45z

m50 20 c0 -8 -7 -15 -15 -15 -8 0 -15 7 -15 15 0 8 7 15 15 15 8 0 15 -7 15

-15z"/>

<path d="M390 386 c0 -25 5 -46 10 -46 6 0 10 8 10 19 0 11 9 21 21 24 31 8

21 41 -14 45 -26 3 -27 2 -27 -42z m40 19 c0 -8 -4 -15 -10 -15 -5 0 -10 7

-10 15 0 8 5 15 10 15 6 0 10 -7 10 -15z"/>

<path d="M470 385 c0 -32 4 -45 14 -45 10 0 12 7 8 22 -4 17 -2 20 11 15 11

-4 17 -1 17 8 0 9 -6 12 -17 8 -13 -5 -15 -2 -11 15 4 15 2 22 -8 22 -10 0

-14 -13 -14 -45z"/>

<path d="M510 426 c0 -2 7 -6 15 -10 8 -3 15 -1 15 4 0 6 -7 10 -15 10 -8 0

-15 -2 -15 -4z"/>

<path d="M550 420 c0 -5 7 -7 15 -4 12 5 15 -3 15 -35 0 -30 4 -41 15 -41 11

0 15 12 15 45 0 43 -1 45 -30 45 -16 0 -30 -4 -30 -10z"/>

<path d="M625 420 c3 -5 8 -10 11 -10 2 0 4 5 4 10 0 6 -5 10 -11 10 -5 0 -7

-4 -4 -10z"/>

<path d="M690 385 c0 -25 5 -45 10 -45 6 0 10 9 10 19 0 11 6 22 13 24 10 4

10 6 0 6 -7 1 -13 10 -13 21 0 11 -4 20 -10 20 -5 0 -10 -20 -10 -45z"/>

<path d="M740 385 c0 -33 4 -45 15 -45 11 0 14 11 12 45 -1 29 -6 45 -14 45

-9 0 -13 -15 -13 -45z"/>

<path d="M802 418 c-13 -13 -15 -37 -6 -62 11 -28 24 -17 18 14 -4 18 -1 36 6

45 15 18 -1 20 -18 3z"/>

<path d="M848 418 c15 -15 15 -51 0 -66 -7 -7 -8 -12 -2 -12 17 0 34 23 34 45

0 22 -17 45 -34 45 -6 0 -5 -5 2 -12z"/>

<path d="M902 423 c2 -5 12 -26 22 -48 16 -34 19 -37 28 -21 7 12 7 21 1 25

-6 3 -13 16 -17 29 -4 12 -14 22 -23 22 -8 0 -13 -3 -11 -7z"/>

<path d="M974 408 c3 -13 6 -33 6 -45 0 -13 5 -23 10 -23 6 0 10 20 10 45 0

35 -4 45 -16 45 -12 0 -15 -6 -10 -22z"/>

<path d="M1030 385 c0 -32 4 -45 14 -45 10 0 12 7 8 22 -4 17 -2 20 11 15 11

-4 17 -1 17 8 0 9 -6 12 -17 8 -13 -5 -15 -2 -11 15 4 15 2 22 -8 22 -10 0

-14 -13 -14 -45z"/>

<path d="M1070 426 c0 -2 7 -6 15 -10 8 -3 15 -1 15 4 0 6 -7 10 -15 10 -8 0

-15 -2 -15 -4z"/>

<path d="M902 360 c0 -14 2 -19 5 -12 2 6 2 18 0 25 -3 6 -5 1 -5 -13z"/>

<path d="M525 350 c-3 -5 -1 -10 4 -10 6 0 11 5 11 10 0 6 -2 10 -4 10 -3 0

-8 -4 -11 -10z"/>

<path d="M1085 350 c-3 -5 -1 -10 4 -10 6 0 11 5 11 10 0 6 -2 10 -4 10 -3 0

-8 -4 -11 -10z"/>

</g>

</svg>

